<?xml version="1.0" standalone="no"?>
<!DOCTYPE svg PUBLIC "-//W3C//DTD SVG 20010904//EN"
 "http://www.w3.org/TR/2001/REC-SVG-20010904/DTD/svg10.dtd">
<svg version="1.0" xmlns="http://www.w3.org/2000/svg"
 width="974.000000pt" height="391.000000pt" viewBox="0 0 974.000000 391.000000"
 preserveAspectRatio="xMidYMid meet">

<g transform="translate(0.000000,391.000000) scale(0.100000,-0.100000)"
fill="#000000" stroke="none">
<path d="M3965 2559 c-4 -28 -4 -131 0 -229 l7 -177 -158 -52 c-217 -72 -248
-88 -252 -128 -3 -29 0 -32 42 -48 59 -23 138 -17 266 20 102 30 130 41 130
54 0 4 -46 -3 -102 -16 -127 -30 -271 -36 -276 -12 -4 20 65 51 238 108 69 23
130 45 135 49 15 10 4 474 -11 479 -8 3 -15 -16 -19 -48z"/>
<path d="M6105 2559 c-14 -24 -57 -102 -96 -174 -104 -192 -250 -405 -278
-405 -11 0 -38 84 -61 185 -26 116 -70 245 -84 245 -18 0 -278 -459 -271 -477
3 -10 9 -13 15 -7 5 5 54 88 110 184 56 96 109 186 118 199 l15 25 20 -40 c11
-21 39 -114 62 -207 23 -92 45 -170 48 -173 10 -10 98 78 152 151 77 104 240
383 279 476 9 21 11 41 6 49 -6 10 -15 2 -35 -31z"/>
<path d="M2950 2480 c-201 -7 -483 -32 -547 -49 -42 -11 -36 -37 7 -34 19 1
104 5 189 9 l153 7 -6 -29 c-25 -128 -67 -464 -59 -474 2 -2 12 0 21 6 12 8
19 33 25 85 5 41 19 148 32 239 19 138 26 167 44 181 16 13 52 18 168 24 82 4
186 10 233 14 78 7 83 8 57 19 -16 7 -45 11 -65 10 -20 -1 -134 -5 -252 -8z"/>
<path d="M6654 2285 c-4 -8 -1 -22 6 -30 11 -14 15 -13 27 5 8 11 11 25 8 30
-9 15 -35 12 -41 -5z"/>
<path d="M6070 2276 c0 -7 6 -19 14 -25 11 -9 18 -8 31 5 13 14 14 19 3 25
-20 13 -48 10 -48 -5z"/>
<path d="M3317 2160 c-80 -14 -129 -38 -184 -93 -60 -58 -65 -82 -25 -118 59
-54 120 -61 248 -29 130 33 164 76 129 166 -14 37 -25 50 -59 65 -22 10 -45
18 -51 18 -5 -1 -32 -5 -58 -9z m101 -50 c53 -33 62 -96 18 -125 -30 -20 -132
-45 -182 -45 -46 0 -102 16 -122 35 -44 41 122 148 238 154 8 1 30 -8 48 -19z"/>
<path d="M4307 2160 c-80 -14 -129 -38 -184 -93 -60 -58 -65 -82 -25 -118 59
-54 120 -61 248 -29 130 33 164 76 129 166 -14 37 -25 50 -59 65 -22 10 -45
18 -51 18 -5 -1 -32 -5 -58 -9z m101 -50 c71 -44 61 -112 -22 -142 -97 -36
-233 -32 -267 8 -36 43 127 147 241 153 8 1 30 -8 48 -19z"/>
<path d="M6401 2110 c-92 -51 -231 -169 -231 -196 0 -28 27 -12 91 54 63 64
155 122 194 122 16 0 17 -6 10 -67 -9 -84 -8 -119 7 -147 11 -21 11 -21 19 4
11 36 29 229 22 246 -8 22 -54 16 -112 -16z"/>
<path d="M6958 2095 c-40 -15 -118 -65 -150 -97 -28 -28 -23 -65 12 -83 29
-15 35 -14 131 19 l101 35 43 -40 c24 -22 46 -36 49 -30 8 13 -45 99 -65 106
-9 3 -60 -10 -113 -29 -93 -34 -126 -37 -126 -12 0 31 128 111 166 103 29 -5
40 8 24 28 -15 18 -24 18 -72 0z"/>
<path d="M6666 2073 c-4 -15 -2 -102 4 -193 20 -338 20 -340 -103 -348 -71 -4
-79 -3 -112 22 -34 26 -34 26 -26 4 16 -45 56 -63 134 -62 95 1 145 18 154 52
8 33 -5 478 -15 516 -11 39 -29 44 -36 9z"/>
<path d="M6072 2073 c-15 -28 -24 -146 -13 -163 18 -26 28 2 35 93 6 85 -2
109 -22 70z"/>
</g>
</svg>
