<?xml version="1.0" standalone="no"?>
<!DOCTYPE svg PUBLIC "-//W3C//DTD SVG 20010904//EN"
 "http://www.w3.org/TR/2001/REC-SVG-20010904/DTD/svg10.dtd">
<svg version="1.0" xmlns="http://www.w3.org/2000/svg"
 width="849.000000pt" height="380.000000pt" viewBox="0 0 849.000000 380.000000"
 preserveAspectRatio="xMidYMid meet">

<g transform="translate(0.000000,380.000000) scale(0.100000,-0.100000)"
fill="#000000" stroke="none">
<path d="M0 1900 l0 -1900 4245 0 4245 0 0 1900 0 1900 -4245 0 -4245 0 0
-1900z m3582 193 l3 -172 -100 -32 c-110 -35 -175 -64 -175 -79 0 -16 98 -11
188 9 50 11 81 14 79 8 -4 -14 -137 -56 -197 -64 -58 -7 -120 17 -120 46 0 26
40 46 186 96 l112 38 -6 142 c-5 141 1 206 18 189 4 -5 10 -86 12 -181z m1548
150 c0 -26 -91 -193 -165 -303 -66 -100 -142 -186 -153 -175 -4 3 -18 54 -33
113 -14 59 -35 126 -45 149 l-19 42 -85 -149 c-47 -82 -88 -150 -92 -150 -21
-1 1 49 85 194 52 88 99 162 104 163 12 4 32 -50 63 -174 11 -45 25 -94 30
-109 10 -26 11 -26 31 -8 33 30 142 199 204 317 54 102 75 128 75 90z m-2082
-59 c50 -14 15 -22 -120 -28 -176 -9 -206 -14 -218 -36 -5 -10 -16 -78 -25
-151 -20 -169 -27 -201 -44 -207 -17 -6 -11 89 16 256 9 56 14 105 11 108 -3
3 -61 1 -129 -5 -68 -5 -127 -7 -131 -5 -14 9 -9 22 10 28 34 10 237 28 405
35 95 5 179 9 187 9 8 1 25 -1 38 -4z m2486 -142 c2 -4 -2 -15 -9 -25 -11 -15
-14 -15 -25 -3 -6 9 -9 20 -5 26 7 12 32 13 39 2z m-419 -11 c3 -5 1 -13 -5
-16 -15 -9 -43 3 -35 15 8 13 32 13 40 1z m-1932 -101 c34 -27 45 -81 23 -114
-21 -33 -113 -59 -189 -54 -45 3 -63 10 -84 30 -31 32 -26 51 28 97 71 61 173
80 222 41z m709 9 c40 -22 56 -112 24 -138 -21 -17 -119 -41 -168 -41 -61 0
-106 22 -114 57 -6 23 -1 33 39 69 62 56 166 81 219 53z m1504 -10 c9 -16 -6
-199 -17 -199 -20 0 -30 52 -20 104 5 28 6 54 2 58 -12 14 -95 -35 -143 -84
-46 -47 -68 -59 -68 -36 0 18 86 92 153 132 65 38 82 43 93 25z m138 -35 c3
-9 9 -103 13 -209 7 -223 13 -209 -98 -221 -56 -5 -67 -3 -91 16 -16 12 -28
28 -28 36 0 12 6 11 31 -6 26 -19 38 -21 85 -15 75 9 77 18 65 216 -9 152 -7
199 9 199 4 0 11 -7 14 -16z m244 -1 c2 -8 -5 -13 -18 -13 -12 0 -41 -11 -65
-25 -95 -56 -78 -80 28 -40 37 14 72 25 77 25 5 0 21 -16 36 -35 33 -44 20
-69 -16 -30 -28 30 -40 31 -108 5 -66 -25 -84 -25 -107 0 -19 21 -13 37 29 70
66 51 134 71 144 43z m-682 -60 c-8 -73 -9 -78 -25 -68 -22 13 -2 135 21 135
7 0 9 -21 4 -67z"/>
<path d="M3057 1907 c-43 -14 -107 -62 -107 -81 0 -32 89 -46 165 -25 76 21
96 61 49 98 -30 23 -51 25 -107 8z"/>
<path d="M3771 1905 c-46 -14 -101 -59 -101 -82 0 -38 141 -42 202 -6 42 24
46 46 14 78 -28 28 -51 30 -115 10z"/>
</g>
</svg>
