<svg width="38" height="38" viewBox="0 0 38 38" fill="none" xmlns="http://www.w3.org/2000/svg">
<g id="Color Scheme">
<rect id="Rectangle 11" width="38" height="38" rx="5" fill="#6C63FF"/>
<path id="Vector" fill-rule="evenodd" clip-rule="evenodd" d="M20.1576 9.15764C20.1576 8.5183 19.6394 8 19 8C18.3606 8 17.8423 8.5183 17.8423 9.15764V9.73887C17.8423 10.3782 18.3606 10.8965 19 10.8965C19.6394 10.8965 20.1576 10.3782 20.1576 9.73887V9.15764ZM26.7782 12.8589C27.2302 12.4068 27.2302 11.6739 26.7782 11.2218C26.3261 10.7697 25.5931 10.7697 25.141 11.2218L24.73 11.6328C24.2779 12.0849 24.2779 12.8179 24.73 13.27C25.182 13.7221 25.915 13.7221 26.3671 13.27L26.7782 12.8589ZM12.8589 11.2218C12.4068 10.7698 11.6738 10.7698 11.2217 11.2218C10.7697 11.6739 10.7697 12.4069 11.2217 12.859L11.6327 13.27C12.0848 13.7221 12.8178 13.7221 13.2699 13.27C13.722 12.8179 13.722 12.0849 13.2699 11.6328L12.8589 11.2218ZM9.15764 17.8423C8.5183 17.8423 8 18.3606 8 19C8 19.6394 8.5183 20.1576 9.15764 20.1576H9.73884C10.3782 20.1576 10.8965 19.6394 10.8965 19C10.8965 18.3606 10.3782 17.8423 9.73884 17.8423H9.15764ZM28.2611 17.8423C27.6217 17.8423 27.1035 18.3606 27.1035 19C27.1035 19.6394 27.6217 20.1576 28.2611 20.1576H28.8424C29.4817 20.1576 30 19.6394 30 19C30 18.3606 29.4817 17.8423 28.8424 17.8423H28.2611ZM13.2699 26.3672C13.722 25.9151 13.722 25.1821 13.2699 24.7301C12.8178 24.2779 12.0848 24.2779 11.6327 24.7301L11.2218 25.141C10.7697 25.5931 10.7697 26.3261 11.2218 26.7782C11.6739 27.2302 12.4068 27.2302 12.8589 26.7782L13.2699 26.3672ZM26.3671 24.7301C25.915 24.2779 25.182 24.2779 24.73 24.7301C24.2779 25.1821 24.2779 25.9151 24.73 26.3672L25.1409 26.7782C25.5931 27.2303 26.326 27.2303 26.7782 26.7782C27.2302 26.3261 27.2302 25.5932 26.7782 25.141L26.3671 24.7301ZM20.1576 28.2611C20.1576 27.6217 19.6394 27.1035 19 27.1035C18.3606 27.1035 17.8423 27.6217 17.8423 28.2611V28.8424C17.8423 29.4817 18.3606 30 19 30C19.6394 30 20.1576 29.4817 20.1576 28.8424V28.2611ZM14.3694 19C14.3694 16.4426 16.4426 14.3694 19 14.3694C21.5573 14.3694 23.6305 16.4426 23.6305 19C23.6305 21.5573 21.5573 23.6305 19 23.6305C16.4426 23.6305 14.3694 21.5573 14.3694 19ZM19 12.0541C15.1639 12.0541 12.0541 15.1639 12.0541 19C12.0541 22.8361 15.1639 25.9458 19 25.9458C22.8361 25.9458 25.9458 22.8361 25.9458 19C25.9458 15.1639 22.8361 12.0541 19 12.0541Z" fill="#F7F7F7"/>
</g>
</svg>
